<svg width="192" height="192" viewBox="0 0 192 192" xmlns="http://www.w3.org/2000/svg">
  <defs>
    <linearGradient id="gradient" x1="0%" y1="0%" x2="100%" y2="100%">
      <stop offset="0%" style="stop-color:#667eea;stop-opacity:1" />
      <stop offset="100%" style="stop-color:#764ba2;stop-opacity:1" />
    </linearGradient>
  </defs>
  
  <!-- Background circle -->
  <circle cx="96" cy="96" r="88" fill="url(#gradient)" stroke="#ffffff" stroke-width="4"/>
  
  <!-- Money symbol -->
  <g transform="translate(96,96)">
    <!-- Dollar sign -->
    <path d="M-8,-40 L-8,-30 M-8,30 L-8,40 M-20,-20 Q-20,-30 -10,-30 L10,-30 Q20,-30 20,-20 Q20,-10 10,-10 L-10,-10 Q-20,-10 -20,0 Q-20,10 -10,10 L10,10 Q20,10 20,20 Q20,30 10,30 L-10,30 Q-20,30 -20,20" 
          stroke="#ffffff" stroke-width="6" fill="none" stroke-linecap="round" stroke-linejoin="round"/>
  </g>
  
  <!-- Decorative elements -->
  <circle cx="60" cy="60" r="4" fill="#ffffff" opacity="0.6"/>
  <circle cx="132" cy="60" r="4" fill="#ffffff" opacity="0.6"/>
  <circle cx="60" cy="132" r="4" fill="#ffffff" opacity="0.6"/>
  <circle cx="132" cy="132" r="4" fill="#ffffff" opacity="0.6"/>
</svg>